<svg width="500" height="500" viewBox="0 0 500 500" fill="none" xmlns="http://www.w3.org/2000/svg">
<rect width="500" height="500" rx="140" fill="black"/>
<path d="M229.159 342.352C196.665 351.674 134.88 354.822 77 276.34C89.7096 271.345 98.4912 265.601 128.24 263.851C160.309 319.992 195.398 336.118 229.159 342.352Z" fill="white"/>
<path d="M270.842 342.352C303.336 351.674 365.12 354.822 423 276.34C410.291 271.345 401.509 265.601 371.76 263.851C339.692 319.992 304.602 336.118 270.842 342.352Z" fill="white"/>
<path d="M234.423 331.262C158.814 329.106 119.355 230.343 122.394 202.078C132.661 202.935 165.984 206.319 203.067 232.762C197.776 280.173 211.756 308.244 234.423 331.262Z" fill="white"/>
<path d="M266.343 330.622C341.952 328.466 381.411 229.703 378.372 201.438C368.105 202.295 334.782 205.68 297.699 232.123C302.99 279.533 289.01 307.605 266.343 330.622Z" fill="white"/>
<path d="M250.351 329.81C308.065 288.17 288.983 191.527 249.895 149C221.982 170.697 182.717 288.014 250.351 329.81Z" fill="white"/>
<path d="M204.94 220.456C195.088 213.496 183.787 206.068 170.833 202.202C171.616 189.374 173.164 176.655 176.918 164.252C188.078 169.978 199.019 175.22 213.907 189.231C210.828 196.558 207.254 204.984 204.94 220.456Z" fill="white"/>
<path d="M295.089 220.456C304.941 213.496 316.242 206.068 329.196 202.202C328.413 189.374 326.866 176.655 323.111 164.252C311.951 169.978 301.01 175.22 286.122 189.231C289.202 196.558 292.775 204.984 295.089 220.456Z" fill="white"/>
<path d="M250.167 351.395C248.891 351.371 247.941 346.362 247.056 345.442C246.17 344.523 241.2 343.385 241.224 342.109C241.249 340.833 246.258 339.883 247.177 338.997C248.096 338.112 249.235 333.142 250.511 333.166C251.787 333.19 252.737 338.2 253.622 339.119C254.507 340.038 259.478 341.177 259.454 342.453C259.429 343.729 254.42 344.679 253.5 345.564C252.581 346.449 251.443 351.419 250.167 351.395Z" fill="white"/>
</svg>
